<?xml version="1.0" encoding="UTF-8" standalone="no"?>
<!-- Created with Inkscape (http://www.inkscape.org/) -->

<svg
   width="220.71637mm"
   height="221.45116mm"
   viewBox="0 0 220.71637 221.45116"
   version="1.1"
   id="svg1"
   xml:space="preserve"
   xmlns="http://www.w3.org/2000/svg"
   xmlns:svg="http://www.w3.org/2000/svg"><g
     id="layer1"
     transform="translate(8.124951,3.3924234)"><path
       style="fill:#000080"
       d="m 99.137412,218.00591 c -0.07276,-0.0731 -1.739635,-0.20403 -3.704166,-0.29103 -8.231077,-0.36454 -19.518988,-2.51281 -27.913541,-5.31239 C 42.235508,203.97021 21.721163,187.50103 7.6778626,164.36071 0.9926926,153.34499 -3.9943982,140.2908 -6.2785742,127.82839 -7.6710695,120.23098 -8.1260354,115.08537 -8.1249491,106.94613 -8.1236149,96.949913 -7.7663416,93.261293 -5.8953933,83.927376 -2.773575,68.353032 4.2337887,52.947373 14.055078,40.06635 15.084062,38.716795 16.246269,37.190854 16.63776,36.675369 18.712827,33.943082 23.957892,28.450801 27.832208,24.953294 39.250285,14.645715 51.380855,7.4597051 65.535331,2.6183989 71.00337,0.74814575 79.831975,-1.4499909 83.79158,-1.9270222 c 0.800364,-0.096424 1.931458,-0.2773173 2.513541,-0.4019862 0.582083,-0.1246688 2.546615,-0.3579348 4.365625,-0.5183686 1.81901,-0.1604339 3.783541,-0.3502914 4.365625,-0.4219055 1.752841,-0.2156534 10.835129,-0.1342145 15.234489,0.1366044 21.53372,1.3255862 43.62997,9.8809879 60.60205,23.4643851 10.37793,8.30585 18.76379,17.765781 25.90919,29.227663 2.25596,3.618759 6.6304,12.424352 8.26688,16.640924 2.65332,6.836551 5.34476,16.473834 6.13296,21.960415 0.0941,0.654844 0.34296,2.262188 0.55307,3.571875 1.24681,7.771668 1.11684,22.269566 -0.28938,32.279166 -1.47602,10.50648 -5.42771,22.89328 -10.46663,32.80833 -11.06297,21.76852 -29.41454,39.8454 -50.9093,50.1473 -12.15081,5.82359 -25.32877,9.52089 -37.70312,10.57828 -3.72857,0.31861 -13.047365,0.64281 -13.229168,0.46025 z m 10.980208,-4.96742 c 18.28175,-1.3226 37.14555,-8.07214 52.3461,-18.72965 14.78702,-10.36757 26.56021,-23.92501 34.49926,-39.7277 5.68378,-11.31357 9.02642,-22.42171 10.5524,-35.06731 0.69537,-5.76253 0.6804,-19.969944 -0.0273,-25.929163 -0.3192,-2.687696 -1.35745,-8.050266 -2.30519,-11.906249 C 197.85885,51.879648 177.78677,26.667284 150.23259,12.655836 142.83234,8.8927703 136.29846,6.4561509 128.24158,4.4549345 117.63848,1.8212725 108.1624,0.87347381 97.473248,1.377482 92.134066,1.6292318 89.807188,1.8506595 84.58533,2.6039071 80.597608,3.1791318 72.796285,5.1305513 67.795121,6.8038025 41.612376,15.563826 19.481035,34.892594 7.2086323,59.718003 c -5.2328934,10.585434 -8.04526412,19.573948 -9.9754889,31.88229 -0.5471708,3.489109 -0.6025539,4.758728 -0.6117052,14.022917 -0.00868,8.78712 0.1975397,15.08787 0.5104926,15.59738 0.049096,0.0799 0.1685694,0.80017 0.2654957,1.60053 0.2818078,2.32702 1.94133679,9.83558 2.94298501,13.31557 C 6.489218,157.49931 19.0242,176.3978 36.166582,190.15038 c 11.540806,9.25868 25.780231,16.33352 40.216665,19.98158 5.42822,1.37171 13.64987,2.69971 18.520832,2.99158 3.472815,0.20809 11.805461,0.16151 15.213541,-0.085 z m -25.941192,-30.01263 -0.649432,-0.64944 v -6.05963 -6.05964 l -2.05052,-0.14912 c -5.352391,-0.38925 -7.926171,-2.79094 -8.214805,-7.66555 l -0.121414,-2.05052 h -6.02211 c -6.777266,0 -7.01689,-0.0622 -7.310869,-1.8988 -0.129729,-0.81044 -0.0421,-1.08635 0.525187,-1.65364 l 0.680896,-0.6809 h 6.097443 6.097443 v -3.57187 -3.57188 h -6.176701 c -5.631593,0 -6.215068,-0.0424 -6.611441,-0.48038 -0.745412,-0.82367 -0.817968,-1.95124 -0.177916,-2.76494 l 0.569049,-0.72343 h 6.198504 6.198505 v -3.43958 -3.43958 H 67.23477 61.261292 l -0.773397,-0.7734 c -0.954411,-0.95441 -0.997739,-1.93673 -0.123966,-2.8105 l 0.649432,-0.64944 h 6.097443 6.097443 v -3.57187 -3.57188 H 66.98665 60.765053 l -0.531056,-0.85989 c -0.605494,-0.98043 -0.505071,-1.89409 0.29808,-2.71198 0.489572,-0.49856 0.86923,-0.52917 6.563138,-0.52917 h 6.043507 l 0.157237,-2.22621 c 0.353566,-5.00589 3.239392,-7.69566 8.256588,-7.69566 h 1.974449 v -6.7112 c 0,-6.388898 0.02634,-6.744667 0.54837,-7.408328 0.362888,-0.461336 0.803037,-0.69714 1.301277,-0.69714 2.244161,0 2.383686,0.48707 2.383686,8.321238 v 6.49543 h 3.439584 3.439583 v -6.82928 c 0,-6.507046 0.02545,-6.856596 0.539473,-7.408331 0.782128,-0.839515 2.172487,-0.782527 2.880906,0.118083 0.522036,0.663661 0.548371,1.01943 0.548371,7.408328 v 6.7112 h 3.439584 3.43958 v -6.7112 c 0,-6.388898 0.0263,-6.744667 0.54837,-7.408328 0.58194,-0.73982 1.70201,-0.9274 2.6162,-0.438142 0.90684,0.485327 1.06876,1.73484 1.06876,8.24715 v 6.31052 h 3.43959 3.43958 v -6.87917 c 0,-6.526387 0.0271,-6.906301 0.52917,-7.408331 0.73697,-0.736972 2.13185,-0.696455 2.86429,0.0832 0.55984,0.595918 0.57529,0.794902 0.57529,7.408331 v 6.79597 l 1.78594,0.0197 c 2.23265,0.0246 2.70291,0.11249 4.31778,0.80719 1.45509,0.62596 3.00199,2.18166 3.6136,3.63414 0.22301,0.52963 0.46428,1.975 0.53614,3.21192 l 0.13065,2.24896 5.58972,-0.0676 c 4.11334,-0.0497 5.76231,0.0211 6.24317,0.26841 0.90402,0.46486 1.45247,1.52785 1.23511,2.39388 -0.34698,1.38244 -0.85645,1.49019 -7.25652,1.53469 l -5.87684,0.0408 v 3.53729 3.53728 h 5.83823 c 3.23152,0 6.05052,0.11362 6.31371,0.25448 0.64794,0.34676 1.17349,1.7072 0.97107,2.5137 -0.32454,1.29309 -1.19611,1.46516 -7.42133,1.46516 h -5.70168 v 3.43958 3.43958 h 6.06621 6.06622 l 0.54837,0.69714 c 0.3016,0.38343 0.54837,0.96269 0.54837,1.28724 0,0.32455 -0.24677,0.90381 -0.54837,1.28723 l -0.54837,0.69714 h -6.06622 -6.06621 v 3.57188 3.57187 h 6.06621 6.06622 l 0.54837,0.69714 c 0.54736,0.69587 0.7137,1.83124 0.34588,2.36091 -0.10691,0.15395 -0.48877,0.48137 -0.84857,0.7276 -0.56521,0.38679 -1.4379,0.44769 -6.41615,0.44769 h -5.76196 l -10e-4,1.65364 c -0.004,4.85533 -2.72546,7.6103 -7.91805,8.01651 l -2.39922,0.18768 v 6.13746 c 0,6.07332 -0.006,6.14348 -0.61236,6.71275 -0.77278,0.72599 -2.01926,0.74206 -2.77733,0.0358 -0.56383,-0.52528 -0.57906,-0.70234 -0.57906,-6.73216 v -6.19269 l -3.44005,-0.0809 -3.44004,-0.0808 4.6e-4,5.90011 c 5.6e-4,7.17347 -0.16985,7.72593 -2.38322,7.72593 -0.49824,0 -0.93839,-0.23581 -1.30128,-0.69714 -0.51845,-0.65911 -0.54837,-1.02715 -0.54837,-6.74688 v -6.04973 h -3.43958 -3.439584 v 6.21771 c 0,5.86493 -0.03002,6.24773 -0.529167,6.74687 -0.736972,0.73697 -2.131849,0.69646 -2.864296,-0.0832 -0.55643,-0.59229 -0.575287,-0.81297 -0.575287,-6.73216 v -6.1198 l -3.440047,-0.0809 -3.440046,-0.0808 4.63e-4,6.11588 c 4.39e-4,5.78702 -0.02902,6.15336 -0.547907,6.81302 -0.736514,0.93632 -2.125089,0.95815 -3.035531,0.0477 z m 41.357052,-18.24788 0.98831,-0.90565 0.0682,-22.04696 c 0.0637,-20.58634 0.0374,-22.1083 -0.39688,-22.973 -0.97709,-1.94562 0.25106,-1.85121 -24.08761,-1.85167 -24.342244,-4.6e-4 -23.143454,-0.0914 -24.123654,1.82996 -0.544576,1.06745 -0.54866,1.26275 -0.478608,22.88717 0.07022,21.67615 0.07407,21.81512 0.625326,22.55743 0.305069,0.4108 0.840851,0.89398 1.190625,1.07373 0.489711,0.25167 5.762856,0.32773 22.930981,0.33073 l 22.29503,0.004 z m -37.943278,-7.5588 c -1.302336,-0.52555 -1.417372,-1.06834 -1.417372,-6.68771 0,-7.05864 -0.527699,-6.54368 6.705536,-6.54368 7.249144,0 6.63202,-0.59206 6.737244,6.4636 l 0.08132,5.453 -0.788574,0.78857 -0.788574,0.78858 -4.98129,-0.0168 c -2.739709,-0.009 -5.236441,-0.11974 -5.548292,-0.24559 z m 8.107627,-6.48452 v -2.77812 h -2.778125 -2.778125 v 2.77812 2.77813 h 2.778125 2.778125 z m 10.148621,6.48452 c -1.29194,-0.52136 -1.41737,-1.08988 -1.41737,-6.42423 0,-5.18048 0.1947,-6.25609 1.20248,-6.64281 0.23556,-0.0904 2.78662,-0.16435 5.66901,-0.16435 7.03783,0 6.46551,-0.54369 6.57231,6.24355 0.0453,2.87814 0.0138,5.5061 -0.07,5.8399 -0.30137,1.20074 -1.29275,1.41173 -6.54767,1.39353 -2.66298,-0.009 -5.09694,-0.11974 -5.40879,-0.24559 z m 8.10763,-6.48452 v -2.77812 h -2.77813 -2.77812 v 2.77812 2.77813 h 2.77812 2.77813 z M 86.822261,138.31127 c -0.646488,-0.64648 -0.649431,-0.67356 -0.649431,-5.97347 v -5.32405 l 0.773397,-0.7734 0.773397,-0.77339 h 5.20008 5.20008 l 0.773397,0.77339 0.773398,0.7734 v 5.27634 c 0,4.9373 -0.03524,5.32113 -0.54837,5.97348 l -0.54837,0.69714 h -5.549073 c -5.538831,0 -5.550272,-0.001 -6.198505,-0.64944 z m 8.875568,-6.07699 v -2.79857 h -2.778125 -2.778125 v 2.71561 2.71561 l 2.778125,0.083 2.778125,0.0829 z m 9.380071,6.02633 c -0.64359,-0.69444 -0.64882,-0.74263 -0.64882,-5.97347 v -5.27339 l 0.7734,-0.7734 0.77339,-0.77339 h 5.20008 5.20008 l 0.7734,0.77339 0.7734,0.7734 v 5.27634 c 0,4.9373 -0.0352,5.32113 -0.54837,5.97348 l -0.54837,0.69714 h -5.54968 -5.54968 z m 8.87618,-6.04678 v -2.77812 h -2.77813 -2.77812 v 2.77812 2.77813 h 2.77812 2.77813 z M 52.598432,79.821268 C 50.476144,79.225627 48.694243,78.1546 47.364035,76.675089 45.2674,74.343126 44.463964,72.21847 44.20342,68.31696 c -0.411544,-6.162659 1.954498,-10.931098 6.473067,-13.045591 2.894109,-1.354317 7.482793,-1.306276 10.495542,0.109883 2.700812,1.269532 4.816335,3.990222 5.828352,7.495612 0.359592,1.245544 0.427743,2.260465 0.328681,4.894791 -0.106931,2.84356 -0.231944,3.590852 -0.865804,5.175513 -1.32332,3.308323 -2.846347,4.900275 -6.123468,6.400591 -1.903482,0.871443 -5.53259,1.093421 -7.741358,0.473509 z m 6.226985,-4.759482 c 2.441991,-1.216895 3.802282,-4.00639 3.796357,-7.785035 -0.0081,-5.178918 -2.125969,-8.141907 -6.016415,-8.417305 -2.569359,-0.181882 -3.922099,0.258342 -5.362802,1.745222 -1.627451,1.679615 -2.111452,3.257532 -2.111183,6.88278 1.89e-4,2.552026 0.07082,2.96162 0.758961,4.401387 0.417314,0.873125 1.042298,1.848001 1.388854,2.166391 1.895007,1.740993 5.190348,2.180545 7.546228,1.00656 z m 56.451573,4.783679 c -2.82445,-0.811378 -4.46434,-2.045781 -5.64936,-4.252463 -0.54772,-1.019934 -0.57118,-1.415209 -0.64646,-10.894283 l -0.0781,-9.835949 2.26154,-0.08593 2.26155,-0.08592 -6.2e-4,8.846152 c -5.9e-4,8.407104 0.0266,8.902329 0.54732,9.978043 0.79376,1.639679 2.05822,2.342471 4.21456,2.342471 1.98868,0 3.22809,-0.579473 4.14291,-1.936964 0.77479,-1.149716 0.9388,-3.535717 0.8353,-12.152283 l -0.0834,-6.945498 2.31511,1.85e-4 2.3151,1.86e-4 v 9.212394 c 0,10.503993 -0.0813,11.070397 -1.88308,13.117315 -1.19694,1.359797 -2.56858,2.1682 -4.59921,2.710627 -1.64928,0.440562 -4.38549,0.432251 -5.95313,-0.01808 z m -91.545316,-12.652984 5.08e-4,-12.501562 5.754179,0.02357 c 6.17021,0.02527 6.930335,0.154411 8.937722,1.518465 3.856484,2.620549 4.392579,9.120458 1.0296,12.483437 -1.778751,1.778751 -3.312864,2.276313 -7.533636,2.443401 l -3.690964,0.146114 v 4.194071 4.19407 h -2.248959 -2.248958 z m 11.111992,-0.661869 c 1.192279,-0.595611 1.851144,-1.918162 1.851672,-3.716895 8.89e-4,-3.033536 -1.393375,-4.006602 -5.754276,-4.015945 l -2.711979,-0.0058 v 4.101041 4.101042 l 2.84427,-4.11e-4 c 2.177762,-3.15e-4 3.061274,-0.108817 3.770313,-0.463021 z m 36.777081,0.728015 V 54.823211 h 2.38125 2.38125 v 10.451041 10.451041 h 5.291666 5.291666 v 1.984375 1.984375 h -7.672916 -7.672916 z m 18.917707,0 V 54.823211 h 2.315104 2.315104 v 10.451041 10.451041 h 5.159378 5.15937 v 1.984375 1.984375 H 98.012933 90.538454 Z M 131.317,79.363314 c 0.10792,-0.181901 1.90314,-2.983496 3.98936,-6.225767 2.96428,-4.606898 3.73981,-5.994452 3.54913,-6.35 -0.1342,-0.250229 -1.86285,-3.001464 -3.84146,-6.113856 -1.9786,-3.112391 -3.59748,-5.731766 -3.59752,-5.820833 -4e-5,-0.08907 1.21418,-0.141128 2.69826,-0.115694 l 2.69833,0.04624 2.56546,4.273996 2.56546,4.273996 2.09946,-3.394199 c 1.15471,-1.86681 2.31989,-3.774117 2.5893,-4.238461 l 0.48983,-0.844261 2.8292,-0.08178 2.8292,-0.08178 -0.85186,1.322917 c -0.46853,0.727604 -2.19358,3.402648 -3.83345,5.944541 -1.63986,2.541893 -3.03518,4.761314 -3.1007,4.932046 -0.0655,0.170731 1.61504,3.054507 3.73456,6.40839 2.11953,3.353884 3.85368,6.164853 3.85368,6.2466 0,0.08175 -1.17513,0.14863 -2.61141,0.14863 h -2.61141 l -2.54592,-4.167187 c -1.40025,-2.291953 -2.60637,-4.28625 -2.68025,-4.431771 -0.0896,-0.176389 -0.17982,-0.176389 -0.27077,0 -0.075,0.145521 -1.27534,2.139818 -2.66734,4.431771 l -2.53091,4.167187 H 133.893 c -2.14606,0 -2.72791,-0.0747 -2.576,-0.330729 z m 34.96351,-12.085321 0.0712,-12.41619 2.24449,-0.08544 2.2445,-0.08544 -6.2e-4,12.501562 -6.2e-4,12.501562 -2.3151,7e-5 -2.31511,7e-5 z m 9.58546,-0.08551 -6.1e-4,-12.501562 2.38186,0.08492 2.38185,0.08492 v 12.416638 12.416639 h -2.38125 -2.38125 z"
      id="path1" /></g></svg>
